<svg xmlns="http://www.w3.org/2000/svg"
     xmlns:xlink="http://www.w3.org/1999/xlink"
     width="160" height="60"
     viewBox="0 0 320 120"
     role="img" aria-labelledby="title desc">

  <title id="title">Wainao Logo (light)</title>
  <desc id="desc">Logo symbol for Wainao in light color variant.</desc>

  <symbol id="wainao-logo-light" viewBox="9 4 110 40" preserveAspectRatio="xMinYMin meet">
      <path fill="#ADC4CA" d="M23.987 13.053c0 4.157-3.354 7.524-7.494 7.524C12.354 20.578 9 17.21 9 13.053c0-4.154 3.354-7.522 7.495-7.522 4.138.001 7.492 3.369 7.492 7.522m0 18.075c0 4.154-3.354 7.524-7.494 7.524C12.354 38.651 9 35.282 9 31.128c0-4.155 3.354-7.523 7.495-7.523 4.138-.001 7.492 3.368 7.492 7.523m17.964 0c0 4.154-3.354 7.524-7.495 7.524-4.139 0-7.494-3.369-7.494-7.524 0-4.155 3.354-7.523 7.494-7.523 4.14-.001 7.495 3.368 7.495 7.523"></path>
      <path fill="#F2BA1E" d="m43.476 13.053-9.02 9.056-9.018-9.056L34.456 4z"></path>
      <path fill="#010101" d="M69.408 31.354h12.298v-4.132H69.408v-2.299h13.023v-4.1H68.926V10.088h13.539V5.987h-31.23v4.102H62.95c-2.761 2.833-6.619 5.126-11.726 6.983l-.824.299 1.269 3.452h-.228v4.1h3.687v9.627h-4.065v4.102h31.781V34.55H69.408v-3.196zm-10.195-6.432h6.112v9.627h-6.112v-9.627zm5.63-10.946v6.847H53.026c4.901-1.816 8.79-4.068 11.817-6.847"></path>
      <path fill="#010101" d="M71.316 15.474c0 2.333 1.891 4.231 4.213 4.231s4.213-1.898 4.213-4.231c0-2.33-1.891-4.229-4.213-4.229s-4.213 1.898-4.213 4.229m43.246 17.843c0 .623-.506 1.133-1.129 1.133h-9.297a1.105 1.105 0 0 1-1.129-1.133V14.521h-4.084v18.797c0 2.886 2.336 5.231 5.213 5.231h9.297c2.875 0 5.213-2.348 5.213-5.231V14.521h-4.084v18.796zm-3.736-24.5V5.532h-4.085v3.285h-8.163v4.1h20.378v-4.1zM93.774 5.504H89.16c-2.292 0-4.229 2.037-4.317 4.572v28.506h4.07v-9.545h5.129v4.97c0 .207-.064.293-.125.352l-.046.049c-.062.074-.109.074-.115.074l-2.609-.052v4.101l2.576.053h.018c1.237 0 2.302-.48 3.146-1.414.802-.844 1.239-1.965 1.239-3.162V10.113c-.001-2.542-1.953-4.609-4.352-4.609m.268 19.435h-5.129v-5.481h5.129v5.481zm-5.114-14.791c0-.333.17-.525.235-.544h4.611c.083 0 .268.193.268.509v5.248h-5.126l.012-5.213z"></path>
      <path fill="#010101" d="m113.973 23.741-5.212-5.235-5.214 5.235 5.214 5.234z"></path>
      <path fill="#F0B92D" d="M57.686 50.237s-.774 1.318-2.219 3.662..."></path>
  </symbol>

  <g transform="translate(40,20)">
    <use xlink:href="#wainao-logo-light" width="240" height="80" />
  </g>

</svg>
